<svg width="28" height="28" fill="none" xmlns="http://www.w3.org/2000/svg"><path d="M5.75 7.0625C5.75 5.5092 7.0092 4.25 8.5625 4.25H19.4375C20.9908 4.25 22.25 5.5092 22.25 7.0625V23.75H5.75V7.0625Z" stroke="#7F868F" stroke-width="1.5"/><rect x="2.3335" y="23.25" width="23.3333" height="1.5" rx="0.75" fill="#7F868F"/><mask id="path-3-inside-1_7854_28006" fill="white"><rect x="8.16699" y="7" width="11.6667" height="5.83333" rx="1.1875"/></mask><rect x="8.16699" y="7" width="11.6667" height="5.83333" rx="1.1875" stroke="#7F868F" stroke-width="3" mask="url(#path-3-inside-1_7854_28006)"/><path d="M10.5 15.9165C10.5 15.5023 10.8358 15.1665 11.25 15.1665H16.75C17.1642 15.1665 17.5 15.5023 17.5 15.9165C17.5 16.3307 17.1642 16.6665 16.75 16.6665H11.25C10.8358 16.6665 10.5 16.3307 10.5 15.9165Z" fill="#7F868F"/></svg>